<?xml version="1.0" standalone="no"?>
<!DOCTYPE svg PUBLIC "-//W3C//DTD SVG 20010904//EN"
 "http://www.w3.org/TR/2001/REC-SVG-20010904/DTD/svg10.dtd">
<svg version="1.0" xmlns="http://www.w3.org/2000/svg"
 width="700.000000pt" height="700.000000pt" viewBox="0 0 700.000000 700.000000"
 preserveAspectRatio="xMidYMid meet">
<metadata>
Created by potrace 1.14, written by Peter Selinger 2001-2017
</metadata>
<g transform="translate(0.000000,700.000000) scale(0.100000,-0.100000)"
fill="#000000" stroke="none">
<path d="M0 3500 l0 -2890 3500 0 3500 0 0 2890 0 2890 -3500 0 -3500 0 0
-2890z m3208 2243 c-13 -15 -327 -394 -1036 -1250 l-143 -173 422 -557 c233
-307 451 -595 486 -641 35 -45 63 -86 63 -90 -1 -5 -1114 -622 -2384 -1320
-83 -46 -142 -74 -131 -64 11 11 364 320 785 688 421 367 803 702 850 744 l86
77 -462 656 -462 656 966 645 c532 354 969 645 971 645 2 1 -3 -7 -11 -16z
m1815 -375 c-6 -7 -229 -330 -498 -717 -268 -387 -505 -728 -526 -759 -21 -30
-39 -60 -39 -65 0 -10 725 -1193 745 -1215 9 -10 96 78 407 410 l396 423 -526
262 c-290 144 -520 262 -512 262 9 1 396 -51 860 -114 465 -64 885 -121 934
-128 l90 -12 -620 -700 c-1104 -1249 -1179 -1334 -1180 -1332 -1 1 -127 225
-281 497 -583 1030 -994 1762 -991 1765 15 15 1744 1435 1747 1435 2 0 -1 -6
-6 -12z"/>
</g>
</svg>
